<svg t="1691400707005" class="icon" viewBox="0 0 1024 1024" version="1.1" xmlns="http://www.w3.org/2000/svg" p-id="46349" width="200" height="200"><path d="M469.333351 1023.999573c-47.061314 0-85.333298-38.271984-85.333298-85.333297s38.271984-85.333298 85.333298-85.333298 85.333298 38.271984 85.333298 85.333298-38.271984 85.333298-85.333298 85.333297z m0-127.999946a42.666649 42.666649 0 1 0 0 85.333297 42.666649 42.666649 0 0 0 0-85.333297z" p-id="46350" fill="#666666"></path><path d="M512.298667 1023.999573H469.333351a21.333324 21.333324 0 0 1 0-42.666649h42.965316a63.573307 63.573307 0 0 0 49.919979-23.978656 63.573307 63.573307 0 0 0 12.543995-53.930644l-21.461325-93.653295c-6.570664 0.597333-13.226661 0.896-19.967992 0.896C388.565385 810.666329 298.666756 737.06636 298.666756 618.666409c0-76.970635 50.389312-170.069262 149.887937-277.162551-8.618663-40.021317-16.04266-75.349302-21.461324-102.655958C393.130716 68.223972 522.666662 2.815999 523.989328 2.175999a21.333324 21.333324 0 0 1 25.813323 5.589331c1.322666 1.621333 129.919946 161.706599-37.077318 328.661196-6.101331 6.101331-11.946662 12.074662-17.706659 18.09066 8.14933 37.674651 17.19466 78.847967 26.581322 121.087949A218.666576 218.666576 0 0 1 575.999973 469.333138c87.97863 0 149.333271 89.941296 149.333271 170.666595 0 76.373302-53.717311 139.519942-130.090612 161.919933l21.119991 92.117295a106.239956 106.239956 0 0 1-20.906658 90.026629 106.069289 106.069289 0 0 1-83.157298 39.935983zM459.648022 392.831836C381.994721 481.279799 341.333404 558.591767 341.333404 618.666409c0 94.933294 70.015971 149.333271 191.99992 149.333271 3.455999 0 6.911997-0.128 10.325329-0.341333-15.01866-65.834639-33.706653-148.394605-52.095978-230.613237-17.322659 14.762661-22.229324 31.914653-22.229324 38.95465 0 39.679983 12.415995 63.999973 21.333325 63.999973a21.333324 21.333324 0 0 1 0 42.666649c-38.271984 0-63.999973-42.879982-63.999974-106.666622 0-18.218659 11.903995-58.709309 54.826644-84.223965-7.594664-34.005319-14.933327-67.370639-21.845324-98.943959z m71.253303 124.543948c19.242659 86.229297 39.039984 173.610594 54.741311 242.559899C638.890614 743.082357 682.666596 700.842375 682.666596 639.999733c0-53.461311-40.575983-127.999947-106.666623-127.999946-17.706659 0-32.639986 2.005332-45.098648 5.375997z m-3.413331-467.114472c-27.306655 20.437325-79.5733 74.666636-58.581309 180.266592 4.095998 20.565325 9.343996 45.695981 15.317327 74.026636 111.231954-112.68262 66.602639-216.149243 43.263982-254.293228z" p-id="46351" fill="#666666"></path></svg>